<?xml version="1.0" standalone="no"?>
<!DOCTYPE svg PUBLIC "-//W3C//DTD SVG 20010904//EN"
 "http://www.w3.org/TR/2001/REC-SVG-20010904/DTD/svg10.dtd">
<svg version="1.0" xmlns="http://www.w3.org/2000/svg"
 width="1200.000000pt" height="1200.000000pt" viewBox="0 0 1200.000000 1200.000000"
 preserveAspectRatio="xMidYMid meet">

<g transform="translate(0.000000,1200.000000) scale(0.100000,-0.100000)"
fill="#000000" stroke="none">
<path d="M7813 10465 c-211 -47 -396 -250 -593 -650 -228 -464 -440 -1132
-661 -2087 -12 -54 -25 -98 -28 -98 -3 0 -17 21 -31 47 -111 210 -210 297
-340 297 -54 1 -74 -5 -119 -29 -215 -119 -397 -552 -550 -1312 -37 -180 -141
-776 -141 -803 0 -5 -5 -10 -12 -10 -7 0 -147 90 -312 199 -372 246 -494 320
-711 426 -460 226 -848 285 -1237 186 -338 -85 -693 -324 -942 -632 -477 -592
-838 -1668 -1045 -3115 -84 -586 -157 -1411 -131 -1479 13 -34 59 -65 95 -65
56 0 351 133 570 258 127 72 380 241 500 335 326 254 615 569 815 889 119 191
273 510 385 801 20 53 40 97 44 97 14 0 36 -32 141 -200 291 -466 432 -638
634 -774 130 -86 297 -134 439 -123 169 12 312 147 428 404 86 191 186 548
258 918 54 274 62 308 71 298 5 -4 41 -64 80 -133 178 -307 321 -475 465 -546
74 -37 85 -39 170 -39 83 0 95 2 153 34 196 106 352 404 522 990 38 134 180
667 180 679 0 3 4 2 9 -3 5 -6 46 -152 90 -325 279 -1100 502 -1591 788 -1732
63 -31 74 -33 168 -33 97 0 104 2 178 38 133 66 269 216 415 457 316 524 710
1440 877 2038 10 34 21 62 25 62 8 0 23 -32 89 -201 263 -668 514 -952 772
-875 189 56 332 304 449 780 132 536 230 1443 255 2346 3 118 10 293 16 389
13 214 7 282 -30 323 -33 37 -98 49 -135 24 -14 -9 -32 -16 -39 -16 -25 0
-219 -104 -314 -168 -481 -324 -855 -866 -1053 -1529 -18 -61 -25 -73 -43 -73
-12 0 -27 4 -34 8 -22 14 -220 793 -374 1477 -190 840 -335 1311 -519 1690
-208 428 -438 616 -687 560z m201 -254 c188 -130 385 -532 571 -1171 69 -236
133 -493 236 -945 45 -198 122 -522 171 -720 49 -198 93 -379 97 -402 8 -40 7
-42 -11 -32 -11 6 -103 90 -206 188 -238 227 -297 278 -405 352 -209 144 -415
201 -607 169 -151 -25 -252 -79 -362 -192 -191 -196 -341 -519 -539 -1156 -15
-50 -25 -69 -30 -59 -5 8 -44 160 -88 338 -44 178 -100 394 -124 480 l-44 155
82 370 c291 1300 583 2123 891 2505 127 159 252 200 368 120z m2741 -2078
c-30 -135 -122 -443 -168 -564 -166 -430 -363 -663 -649 -768 -75 -28 -198
-61 -227 -61 -21 0 -23 3 -18 33 10 63 108 311 182 462 77 156 171 307 277
448 83 110 302 327 412 410 87 64 197 130 204 122 3 -2 -3 -39 -13 -82z
m-4524 -436 c43 -58 94 -162 144 -292 80 -206 78 -189 40 -376 -18 -90 -51
-272 -74 -404 -94 -543 -122 -659 -196 -810 -24 -49 -60 -110 -81 -134 -96
-111 -239 -119 -440 -27 -70 33 -74 36 -69 63 3 15 27 166 55 334 117 718 234
1185 365 1457 62 129 114 206 158 233 38 22 56 14 98 -44z m4544 -535 c-64
-1004 -199 -1782 -365 -2111 -73 -145 -129 -199 -190 -186 -76 17 -206 185
-318 410 -100 201 -164 360 -282 696 l-69 197 19 103 c31 170 40 212 45 218 3
2 58 15 123 28 482 97 747 311 976 786 39 82 73 141 74 132 2 -9 -4 -132 -13
-273z m-2705 264 c87 -19 166 -55 264 -121 98 -65 155 -115 410 -357 197 -187
316 -285 411 -339 l50 -28 24 -93 c13 -51 41 -146 62 -210 l38 -117 -33 -148
c-118 -525 -369 -1189 -695 -1841 -329 -658 -532 -889 -708 -806 -19 10 -55
37 -79 62 -224 223 -435 825 -714 2032 -29 124 -57 230 -62 236 -15 20 120
519 224 829 128 384 265 652 404 790 109 110 240 146 404 111z m-1364 -1229
c48 -205 89 -382 91 -394 3 -13 9 -21 13 -18 12 7 -2 -55 -100 -445 -170 -678
-266 -1006 -365 -1235 -81 -188 -166 -314 -236 -351 -128 -66 -297 105 -547
552 -50 89 -109 192 -132 230 -33 55 -41 76 -38 104 16 134 121 797 128 804 5
5 38 -3 77 -18 335 -127 577 -39 732 263 86 169 133 337 195 706 20 116 41
228 48 250 l11 40 18 -58 c10 -32 58 -226 105 -430z m-3118 252 c198 -22 436
-100 672 -220 169 -86 321 -178 645 -394 160 -106 316 -209 348 -229 55 -34
58 -38 52 -69 -3 -17 -23 -153 -45 -302 -46 -307 -49 -325 -59 -325 -4 0 -50
60 -103 133 -331 457 -602 687 -812 687 -113 0 -213 -53 -333 -177 -175 -179
-331 -486 -553 -1090 -50 -136 -93 -250 -96 -255 -3 -4 -40 22 -82 58 -149
127 -275 183 -432 192 -258 13 -528 -136 -772 -428 -164 -195 -329 -468 -476
-786 -80 -171 -201 -467 -230 -559 -18 -58 -32 -79 -32 -47 0 74 93 647 156
962 235 1175 582 1997 1021 2421 341 329 723 474 1131 428z m781 -964 c115
-58 265 -203 445 -430 123 -156 348 -493 342 -513 -3 -9 -23 -123 -46 -252
-145 -827 -293 -1279 -463 -1414 -37 -29 -44 -31 -120 -30 -60 1 -98 7 -142
24 -215 82 -369 254 -685 760 -57 91 -132 208 -167 260 -34 52 -63 101 -63
109 0 18 164 469 247 681 139 351 280 607 402 729 103 103 162 121 250 76z
m-1493 -1263 c85 -30 162 -82 251 -171 76 -76 84 -88 79 -114 -11 -54 -196
-508 -272 -665 -251 -524 -603 -933 -1109 -1287 -181 -127 -545 -335 -586
-335 -17 0 -7 50 56 270 303 1063 700 1856 1080 2157 178 142 359 194 501 145z"/>
</g>
</svg>
