<?xml version="1.0" standalone="no"?>
<!DOCTYPE svg PUBLIC "-//W3C//DTD SVG 20010904//EN"
 "http://www.w3.org/TR/2001/REC-SVG-20010904/DTD/svg10.dtd">
<svg version="1.0" xmlns="http://www.w3.org/2000/svg"
 width="640.000000pt" height="640.000000pt" viewBox="0 0 640.000000 640.000000"
 preserveAspectRatio="xMidYMid meet">

<g transform="translate(0.000000,640.000000) scale(0.100000,-0.100000)"
fill="#000000" stroke="none">
<path d="M3056 6316 c-234 -150 -398 -284 -595 -485 -222 -227 -417 -488 -570
-765 -39 -70 -71 -130 -71 -131 0 -2 -15 -36 -34 -77 -90 -196 -149 -357 -206
-563 -12 -44 -26 -89 -30 -100 -5 -11 -11 -38 -14 -60 -3 -22 -10 -62 -16 -90
-12 -58 -22 -124 -52 -330 -17 -120 -22 -210 -25 -455 -3 -190 0 -330 6 -370
6 -36 18 -121 27 -190 37 -286 62 -406 126 -615 63 -205 98 -300 165 -455 42
-96 162 -324 194 -372 11 -14 19 -30 19 -35 0 -6 9 -18 20 -28 11 -10 20 -22
20 -27 0 -9 89 -143 115 -175 5 -7 26 -33 45 -59 106 -140 181 -225 334 -377
170 -170 189 -186 371 -322 174 -129 182 -135 188 -135 4 0 28 -14 54 -30 26
-17 55 -30 64 -30 24 0 273 166 388 258 101 82 290 252 332 298 14 16 56 63
95 104 38 42 85 96 104 120 19 24 47 58 61 75 14 16 45 59 69 95 24 36 52 74
61 85 15 17 40 57 140 220 21 34 178 349 189 380 5 11 15 36 23 55 25 59 64
163 77 205 7 22 16 49 20 60 4 11 13 40 20 65 7 25 16 56 20 70 7 22 28 101
60 230 5 19 12 55 15 80 4 25 11 70 16 100 50 300 75 777 50 958 -5 37 -14
119 -20 182 -23 235 -73 494 -133 685 -10 33 -23 78 -29 100 -6 22 -15 49 -19
60 -5 11 -32 81 -61 155 -55 142 -173 386 -221 457 -15 23 -28 44 -28 48 0 3
-41 67 -92 143 -266 398 -660 782 -1028 1000 -52 31 -96 60 -98 64 -6 13 -11
10 -146 -76z m247 -218 c357 -238 645 -527 875 -876 34 -51 62 -96 62 -99 0
-3 8 -17 19 -31 78 -111 250 -479 305 -657 92 -291 132 -460 157 -660 27 -221
34 -325 34 -550 -1 -369 -35 -664 -110 -930 -9 -33 -20 -76 -25 -95 -5 -19
-13 -52 -19 -72 -6 -21 -15 -53 -20 -70 -12 -46 -70 -196 -122 -315 -11 -24
-19 -45 -19 -48 0 -9 -129 -267 -141 -281 -17 -21 -36 -18 -154 30 -61 24
-137 51 -170 61 -33 9 -68 21 -77 26 -10 5 -28 9 -41 9 -41 0 -59 23 -68 85
-10 75 -27 88 -144 114 -131 28 -225 36 -460 35 -217 0 -358 -11 -480 -38 -90
-20 -125 -56 -125 -127 0 -54 -7 -61 -80 -78 -69 -17 -189 -58 -302 -105 -48
-20 -93 -33 -101 -30 -12 4 -129 227 -170 324 -46 109 -107 266 -107 277 0 7
-4 21 -9 31 -5 9 -15 37 -21 62 -7 25 -19 63 -26 85 -39 116 -72 269 -105 490
-46 316 -46 834 1 1125 5 30 12 78 15 105 11 82 62 298 94 395 5 14 19 59 31
100 20 69 49 149 87 240 8 19 19 44 23 55 25 62 135 282 177 355 46 79 196
309 228 348 7 9 44 55 81 102 95 119 330 349 455 446 147 115 310 223 337 223
12 1 64 -27 115 -61z m167 -4597 c168 -18 339 -55 505 -109 115 -38 230 -85
238 -99 6 -10 -46 -106 -80 -148 -5 -5 -26 -35 -47 -65 -125 -176 -368 -437
-516 -555 -182 -145 -346 -255 -380 -255 -43 0 -259 147 -415 284 -210 183
-424 426 -565 642 -28 42 -50 81 -50 85 0 5 26 21 58 35 103 47 124 55 217 83
164 49 204 59 275 70 41 7 91 17 111 22 20 5 63 10 95 10 33 1 73 5 89 10 36
9 345 3 465 -10z"/>
<path d="M2662 5128 c-34 -51 -71 -106 -83 -121 -27 -36 -19 -46 68 -81 38
-16 77 -32 88 -36 11 -5 34 -11 50 -15 17 -3 48 -10 70 -16 123 -31 226 -39
515 -45 306 -5 417 -16 520 -50 173 -58 300 -168 341 -294 8 -27 14 -83 13
-142 -1 -136 16 -131 66 21 36 113 37 160 5 266 -53 173 -192 311 -370 367
-80 25 -139 38 -172 38 -20 0 -63 4 -97 10 -33 5 -128 14 -211 21 -153 11
-376 42 -430 59 -158 50 -165 52 -247 89 -26 12 -52 21 -56 21 -5 0 -36 -42
-70 -92z"/>
<path d="M2260 4962 c-14 -20 -28 -39 -31 -42 -3 -3 -14 -18 -23 -35 -9 -16
-32 -50 -51 -75 -18 -25 -34 -50 -34 -57 -1 -17 69 -63 174 -113 195 -93 310
-127 480 -140 117 -9 404 -3 490 10 134 22 344 31 440 21 52 -6 104 -15 117
-20 13 -5 41 -14 63 -21 54 -17 145 -80 181 -125 47 -60 67 -121 61 -193 -6
-73 4 -86 27 -37 52 110 60 206 25 300 -26 70 -116 169 -188 207 -64 35 -155
67 -229 80 -31 6 -226 14 -432 18 -206 4 -391 11 -410 14 -132 24 -178 36
-270 71 -72 27 -251 116 -297 147 -23 15 -48 28 -55 28 -7 0 -24 -17 -38 -38z"/>
<path d="M2128 4492 c-97 -150 -100 -157 -80 -174 19 -16 115 -59 182 -82 181
-60 390 -91 568 -83 123 6 290 25 402 47 30 6 84 16 120 21 36 6 92 15 125 20
213 34 405 16 469 -43 11 -10 23 -18 28 -18 19 0 60 -85 65 -136 3 -32 11 -54
18 -54 16 0 55 117 55 167 0 58 -38 139 -91 194 -56 57 -146 94 -262 109 -98
12 -332 -1 -467 -25 -135 -25 -444 -30 -565 -11 -98 16 -222 48 -257 67 -10 5
-26 9 -36 9 -10 0 -22 4 -27 8 -6 5 -32 18 -60 29 -27 12 -66 28 -87 37 l-36
16 -64 -98z"/>
<path d="M3480 4170 c-63 -11 -137 -24 -165 -30 -27 -5 -66 -12 -85 -15 -19
-3 -57 -10 -85 -15 -247 -46 -367 -55 -525 -41 -126 11 -197 22 -261 41 -14 4
-30 5 -35 1 -6 -3 -44 -60 -87 -125 -49 -77 -73 -123 -68 -130 5 -6 31 -17 58
-24 26 -7 64 -17 83 -23 101 -27 437 -27 575 0 28 6 68 13 90 17 77 12 130 22
165 33 19 5 67 19 105 29 39 11 95 27 125 37 74 22 163 46 243 64 68 16 178
14 220 -4 44 -18 57 -40 57 -94 0 -23 4 -41 9 -41 4 0 21 18 35 41 22 33 28
52 27 99 0 33 -7 72 -15 88 -49 94 -234 131 -466 92z"/>
<path d="M3678 3693 c-47 -40 -125 -131 -143 -167 -6 -11 -22 -48 -35 -81
l-25 -60 0 -671 c0 -647 1 -673 19 -693 14 -15 31 -21 62 -21 83 0 78 -48 84
790 5 721 6 736 27 791 12 32 33 78 47 103 14 25 22 46 16 46 -5 0 -28 -17
-52 -37z"/>
<path d="M3415 3548 c-89 -81 -153 -186 -175 -290 -6 -27 -10 -277 -10 -614
-1 -543 0 -569 18 -593 26 -36 90 -41 118 -10 18 20 19 45 24 673 l5 651 24
70 c13 39 35 89 48 112 40 72 26 72 -52 1z"/>
<path d="M3199 3423 c-51 -43 -76 -70 -118 -126 -80 -109 -100 -206 -95 -477
2 -91 3 -299 3 -462 1 -293 1 -298 23 -318 30 -27 89 -27 114 1 18 20 19 49
24 613 4 472 8 597 19 621 7 17 18 41 24 55 5 14 21 46 34 73 28 53 19 59 -28
20z"/>
<path d="M2925 3248 c-74 -68 -137 -159 -161 -233 -18 -55 -19 -95 -19 -516 0
-435 1 -458 19 -478 14 -15 31 -21 62 -21 36 0 47 5 61 27 17 25 18 65 20 488
1 253 4 489 8 525 6 63 24 132 38 146 4 4 7 14 7 23 0 9 9 27 20 41 21 27 26
50 11 50 -5 0 -35 -23 -66 -52z"/>
<path d="M2885 1930 c-22 -5 -60 -9 -85 -9 -80 -2 -137 -56 -95 -91 13 -11 43
-10 163 6 193 24 448 24 646 0 145 -18 150 -18 163 0 7 10 13 24 13 31 0 23
-53 48 -119 56 -91 12 -637 17 -686 7z"/>
</g>
</svg>
