<?xml version="1.0" standalone="no"?>
<!DOCTYPE svg PUBLIC "-//W3C//DTD SVG 20010904//EN"
 "http://www.w3.org/TR/2001/REC-SVG-20010904/DTD/svg10.dtd">
<svg version="1.0" xmlns="http://www.w3.org/2000/svg"
 width="800.000000pt" height="800.000000pt" viewBox="0 0 800.000000 800.000000"
 preserveAspectRatio="xMidYMid meet">

<g transform="translate(0.000000,800.000000) scale(0.100000,-0.100000)"
fill="#000000" stroke="none">
<path d="M3327 6832 c-635 -635 -967 -974 -967 -987 0 -11 12 -29 27 -40 70
-50 88 -86 61 -113 -9 -9 -95 -12 -325 -12 -173 0 -321 -4 -331 -9 -9 -5 -24
-12 -33 -14 -15 -5 -779 -1519 -779 -1544 0 -7 -4 -13 -10 -13 -7 0 -10 -135
-9 -387 0 -351 2 -391 18 -418 l18 -30 123 -3 c115 -2 126 -5 157 -28 68 -52
63 62 63 -1491 0 -1135 3 -1415 13 -1446 16 -45 64 -97 89 -97 10 0 18 -4 18
-10 0 -13 5076 -14 5084 -1 3 4 19 11 35 14 16 4 45 20 65 38 l36 31 0 1454 0
1454 36 40 36 39 126 3 125 3 18 30 c16 27 18 66 18 392 1 231 -3 364 -9 368
-5 3 -10 23 -10 43 0 34 -27 99 -103 247 -11 22 -47 94 -80 160 -32 66 -68
138 -80 160 -11 22 -47 94 -80 160 -32 66 -68 138 -80 160 -11 22 -47 94 -80
160 -32 66 -68 138 -80 160 -11 22 -53 105 -93 184 -40 80 -79 150 -86 156
-35 31 -99 37 -353 30 -246 -8 -253 -7 -273 13 -13 13 -19 28 -15 41 3 12 88
103 189 203 101 100 184 186 184 192 0 17 -1663 1676 -1680 1676 -8 0 -451
-435 -983 -968z m1026 596 c37 -11 121 -91 655 -623 l612 -610 0 -75 0 -74
-512 -514 c-282 -282 -532 -527 -555 -543 l-42 -29 -461 0 -461 0 -42 29 c-23
16 -214 202 -424 413 l-383 384 0 74 0 75 743 741 c812 810 776 779 870 752z
m1765 -2001 c19 -18 48 -54 66 -82 28 -44 425 -837 446 -890 25 -65 30 -105
18 -145 -17 -54 -47 -81 -105 -93 -32 -7 -871 -12 -2522 -14 -2706 -3 -2589
-6 -2638 52 -19 22 -23 38 -23 96 0 38 4 77 9 87 5 9 110 220 232 467 261 524
260 523 379 543 79 14 668 11 760 -3 60 -10 82 -27 235 -178 72 -71 155 -147
187 -168 96 -66 121 -114 73 -145 -20 -13 -46 -16 -133 -13 -59 2 -232 2 -385
1 l-278 -2 3 -102 3 -103 1555 0 1555 0 3 103 3 102 -319 0 c-340 0 -342 0
-342 50 0 44 394 440 467 470 7 3 171 3 365 2 l353 -4 33 -31z m651 -1478 l31
-31 0 -178 0 -178 -31 -31 -31 -31 -2738 0 -2738 0 -31 31 -31 31 0 178 0 178
31 31 31 31 2738 0 2738 0 31 -31z m-364 -724 l35 -36 0 -1359 0 -1359 -35
-36 -36 -35 -2367 0 -2368 0 -27 28 -27 28 0 1367 0 1366 35 36 36 35 2359 0
2359 0 36 -35z"/>
</g>
</svg>
