<?xml version="1.0" standalone="no"?>
<!DOCTYPE svg PUBLIC "-//W3C//DTD SVG 20010904//EN"
 "http://www.w3.org/TR/2001/REC-SVG-20010904/DTD/svg10.dtd">
<svg version="1.0" xmlns="http://www.w3.org/2000/svg"
 width="800.000000pt" height="800.000000pt" viewBox="0 0 800.000000 800.000000"
 preserveAspectRatio="xMidYMid meet">

<g transform="translate(0.000000,800.000000) scale(0.100000,-0.100000)"
fill="#000000" stroke="none">
<path d="M894 6771 c-210 -46 -361 -185 -435 -400 -14 -41 -19 -83 -19 -170
l0 -115 81 -246 c45 -135 94 -279 109 -320 15 -41 78 -230 140 -420 62 -190
120 -367 130 -395 21 -59 30 -86 116 -349 36 -111 70 -210 75 -221 5 -11 31
-90 59 -175 28 -85 54 -164 59 -175 6 -11 15 -38 22 -60 6 -22 15 -49 20 -60
4 -11 36 -105 69 -210 34 -104 70 -212 80 -240 10 -27 51 -149 91 -270 39
-121 75 -229 80 -240 24 -57 309 -928 309 -943 0 -10 4 -22 9 -27 5 -6 14 -28
21 -50 60 -201 124 -304 247 -396 96 -72 216 -109 353 -109 165 1 311 66 424
192 62 68 92 124 137 253 17 50 35 99 39 110 5 11 11 29 13 40 5 19 64 194 88
260 6 17 21 64 34 105 23 74 72 221 125 375 15 44 32 98 39 120 7 22 25 76 41
120 15 44 49 145 75 225 26 80 58 174 70 210 12 36 50 151 84 255 34 105 66
198 71 207 6 10 10 24 10 32 0 7 9 35 19 62 20 52 46 129 61 179 19 67 92 271
104 290 7 11 16 32 20 48 3 15 12 27 20 27 21 0 88 -161 131 -315 8 -27 37
-115 66 -195 28 -80 54 -158 59 -175 4 -16 24 -77 44 -135 37 -107 189 -564
272 -815 26 -77 64 -190 85 -252 22 -61 39 -117 39 -125 0 -8 3 -17 6 -21 10
-10 73 -201 74 -222 0 -12 4 -25 9 -30 4 -6 18 -41 31 -80 12 -38 26 -79 31
-90 4 -11 27 -76 50 -145 94 -282 158 -365 359 -465 88 -45 267 -59 376 -30
164 42 313 170 389 332 19 41 35 80 35 86 0 11 131 413 190 582 16 44 34 98
40 120 7 22 17 49 21 60 7 17 68 202 142 430 9 28 45 136 82 240 63 185 125
369 247 740 33 99 63 189 67 200 5 11 18 49 29 85 12 36 49 146 82 245 33 99
112 335 175 525 155 467 165 498 186 555 10 28 30 91 45 140 15 50 37 117 49
150 29 79 75 212 85 250 5 17 20 71 35 120 22 75 26 104 22 175 -12 222 -135
406 -335 501 -126 60 -301 70 -431 25 -139 -47 -265 -155 -327 -278 -43 -85
-84 -194 -84 -222 0 -12 -4 -26 -8 -32 -5 -5 -14 -29 -21 -54 -7 -25 -17 -54
-21 -65 -23 -59 -51 -138 -70 -200 -12 -38 -30 -92 -40 -120 -10 -27 -28 -81
-40 -120 -11 -38 -24 -79 -29 -90 -17 -43 -83 -241 -88 -265 -2 -14 -8 -34
-13 -45 -4 -11 -18 -49 -30 -85 -11 -36 -25 -74 -30 -85 -8 -20 -55 -161 -83
-250 -9 -27 -27 -81 -40 -120 -14 -38 -48 -144 -77 -235 -30 -91 -57 -174 -62
-185 -13 -31 -137 -393 -157 -460 -20 -64 -71 -175 -81 -175 -19 0 -66 128
-246 675 -80 242 -154 463 -163 490 -10 28 -23 66 -30 85 -16 48 -263 792
-302 910 -17 52 -35 104 -39 115 -5 11 -43 123 -84 249 -79 237 -114 322 -147
352 -10 9 -19 23 -19 30 0 17 -87 93 -154 133 -102 61 -156 75 -296 75 -76 0
-141 -5 -165 -12 -129 -42 -258 -139 -330 -248 -24 -36 -53 -108 -87 -212 -27
-86 -58 -177 -68 -202 -10 -25 -25 -67 -33 -95 -9 -27 -28 -86 -43 -130 -15
-44 -44 -129 -64 -190 -20 -60 -49 -146 -64 -190 -15 -44 -36 -107 -46 -140
-20 -64 -56 -171 -100 -300 -15 -44 -44 -129 -64 -190 -21 -60 -42 -123 -46
-140 -8 -28 -42 -131 -106 -315 -14 -41 -34 -102 -44 -135 -10 -33 -24 -78
-32 -100 -8 -22 -21 -58 -27 -80 -7 -22 -25 -76 -41 -120 -15 -44 -33 -100
-40 -125 -8 -25 -26 -71 -42 -102 -15 -32 -28 -64 -28 -72 0 -8 -5 -18 -10
-21 -14 -9 -73 122 -117 260 -43 132 -108 328 -122 370 -6 17 -22 64 -37 105
-14 41 -29 89 -34 105 -11 43 -129 394 -145 430 -7 17 -32 91 -55 165 -23 74
-48 149 -55 165 -7 17 -20 55 -30 85 -9 30 -20 64 -25 75 -4 11 -28 83 -53
160 -25 77 -53 160 -61 185 -49 141 -89 259 -96 285 -38 142 -141 418 -174
467 -132 199 -381 300 -612 249z m3265 -205 c68 -33 159 -122 184 -179 34 -77
40 -103 40 -182 0 -77 -24 -176 -73 -300 -5 -11 -23 -65 -40 -120 -18 -55 -45
-136 -61 -180 -15 -44 -37 -109 -48 -145 -12 -36 -25 -74 -30 -85 -6 -11 -22
-60 -37 -110 -33 -112 -93 -245 -110 -245 -19 0 -47 68 -130 320 -41 124 -78
234 -83 245 -5 11 -29 83 -55 160 -25 77 -62 185 -82 240 -33 92 -36 110 -37
215 -1 104 1 120 25 170 28 61 120 164 156 174 12 4 22 11 22 16 0 14 61 33
125 39 102 10 165 1 234 -33z m-2986 0 c74 -35 143 -94 182 -156 25 -41 71
-154 84 -207 12 -48 87 -268 106 -310 8 -17 15 -35 15 -40 0 -14 79 -255 90
-275 6 -10 10 -23 10 -30 0 -6 13 -48 29 -92 15 -45 38 -115 51 -156 12 -41
31 -97 41 -125 34 -93 96 -279 159 -475 35 -107 67 -202 71 -210 4 -8 42 -121
84 -250 42 -129 83 -249 91 -267 8 -17 14 -35 14 -40 0 -11 77 -252 89 -278 5
-11 16 -42 24 -70 84 -270 116 -333 177 -348 32 -8 85 32 106 81 23 56 74 200
93 267 10 33 21 67 24 75 4 8 18 49 31 90 14 41 39 113 56 160 18 47 36 101
40 120 4 19 17 62 29 95 12 33 29 83 38 110 8 28 22 68 30 90 9 22 57 166 109
321 51 154 97 292 102 305 6 13 20 58 32 99 12 41 30 95 40 120 9 25 22 65 29
90 7 25 18 56 23 70 6 14 32 90 59 170 26 80 53 161 60 180 16 46 68 160 72
160 16 0 62 -98 97 -206 23 -71 51 -151 61 -179 10 -27 28 -81 40 -120 26 -82
90 -270 161 -475 67 -191 68 -209 23 -340 -20 -58 -41 -123 -46 -145 -6 -21
-16 -53 -23 -70 -7 -16 -33 -91 -56 -165 -23 -74 -46 -144 -51 -155 -15 -38
-60 -170 -114 -330 -29 -88 -57 -171 -63 -185 -5 -14 -15 -45 -22 -70 -7 -25
-16 -54 -21 -65 -13 -31 -120 -346 -130 -382 -18 -67 -30 -102 -87 -268 -33
-93 -62 -177 -65 -185 -2 -8 -10 -35 -16 -60 -7 -25 -16 -54 -21 -65 -5 -11
-64 -184 -130 -385 -66 -201 -130 -383 -142 -405 -26 -50 -110 -139 -163 -173
-80 -51 -212 -65 -307 -32 -35 13 -72 27 -83 33 -35 18 -99 79 -131 126 -26
39 -104 240 -134 346 -7 24 -82 249 -170 510 -80 238 -110 327 -121 365 -7 25
-16 50 -19 55 -4 6 -35 96 -69 200 -34 105 -70 213 -80 240 -10 28 -28 82 -41
120 -12 39 -35 106 -50 150 -15 44 -42 125 -60 180 -17 55 -36 109 -40 120 -5
11 -41 119 -81 240 -39 121 -84 256 -99 300 -50 144 -281 839 -290 870 -5 17
-28 89 -53 160 -100 296 -119 351 -127 380 -5 17 -32 98 -61 180 -65 188 -73
267 -39 371 39 116 93 180 192 227 83 39 108 45 191 46 69 1 87 -3 150 -33z
m5884 22 c70 -17 126 -53 185 -117 67 -73 87 -113 106 -214 9 -44 8 -71 -3
-120 -25 -109 -35 -145 -49 -179 -8 -18 -20 -53 -26 -78 -7 -25 -23 -72 -35
-105 -13 -33 -26 -71 -30 -85 -3 -14 -10 -34 -15 -45 -5 -11 -16 -42 -24 -70
-8 -27 -47 -142 -86 -255 -39 -113 -75 -218 -79 -235 -9 -34 -178 -549 -191
-580 -4 -11 -18 -49 -30 -85 -12 -36 -30 -87 -40 -115 -9 -27 -28 -84 -40
-125 -13 -41 -35 -111 -50 -155 -16 -44 -47 -138 -70 -210 -23 -71 -46 -139
-50 -150 -5 -11 -31 -87 -59 -170 -27 -82 -54 -163 -60 -180 -6 -16 -85 -254
-176 -528 -91 -274 -172 -511 -180 -527 -8 -16 -15 -38 -15 -48 0 -11 -8 -41
-19 -68 -10 -27 -42 -123 -71 -214 -29 -91 -56 -174 -61 -185 -50 -134 -65
-166 -90 -205 -39 -59 -93 -120 -108 -120 -6 0 -30 -9 -54 -19 -82 -37 -227
-56 -242 -31 -3 6 -15 10 -26 10 -29 0 -109 39 -155 76 -51 41 -98 113 -125
191 -11 32 -26 74 -33 93 -7 19 -24 67 -36 105 -12 39 -26 79 -30 90 -5 11
-23 65 -40 120 -18 55 -43 132 -57 170 -13 39 -32 97 -42 130 -10 33 -28 87
-40 120 -12 33 -29 83 -37 110 -9 28 -24 73 -33 100 -10 28 -37 109 -60 180
-23 72 -46 139 -50 150 -4 11 -22 65 -40 120 -18 55 -36 109 -40 120 -4 11
-18 54 -31 95 -13 41 -27 79 -32 84 -4 6 -8 16 -8 24 0 8 -17 64 -38 125 -21
62 -46 135 -54 162 -9 28 -32 95 -51 150 -19 55 -64 190 -100 300 -78 238
-101 303 -110 312 -4 3 -7 19 -7 34 0 15 -4 30 -9 34 -17 10 -23 88 -10 120 6
17 15 46 19 65 14 61 317 953 344 1013 15 32 33 57 41 57 23 0 53 -76 159
-395 53 -159 103 -310 112 -335 9 -25 22 -67 30 -95 8 -27 19 -59 24 -70 5
-11 38 -108 74 -215 36 -107 90 -267 120 -355 30 -88 78 -234 107 -325 29 -91
56 -172 60 -180 5 -8 31 -85 58 -170 121 -373 146 -435 188 -451 56 -21 104 8
131 79 20 56 181 530 198 587 9 28 28 86 44 130 15 44 53 157 83 250 31 94 76
231 101 305 25 74 59 178 76 230 18 52 35 104 40 115 13 34 82 238 90 270 4
17 31 95 60 175 28 80 54 154 57 165 2 11 8 29 13 40 4 11 13 40 20 65 7 25
20 68 30 95 10 28 24 68 31 90 6 22 15 49 19 60 5 11 18 52 31 90 12 39 39
117 59 175 21 58 45 131 55 163 24 82 128 217 167 217 6 0 22 8 36 19 55 38
188 52 279 29z"/>
</g>
</svg>
