<?xml version="1.0" standalone="no"?>
<!DOCTYPE svg PUBLIC "-//W3C//DTD SVG 20010904//EN"
 "http://www.w3.org/TR/2001/REC-SVG-20010904/DTD/svg10.dtd">
<svg version="1.0" xmlns="http://www.w3.org/2000/svg"
 width="1388.000000pt" height="1388.000000pt" viewBox="0 0 1388.000000 1388.000000"
 preserveAspectRatio="xMidYMid meet">
<metadata>
Created by potrace 1.11, written by Peter Selinger 2001-2013
</metadata>
<g transform="translate(0.000000,1388.000000) scale(0.100000,-0.100000)"
fill="#000000" stroke="none">
<path d="M6550 13559 c-1986 -119 -3798 -1111 -4975 -2724 -1088 -1491 -1501
-3388 -1134 -5210 525 -2606 2578 -4659 5184 -5184 864 -174 1766 -174 2630 0
2606 525 4659 2578 5184 5184 345 1714 1 3499 -954 4950 -1100 1671 -2888
2760 -4860 2959 -340 35 -752 44 -1075 25z m725 -539 c1330 -85 2555 -569
3547 -1402 114 -95 117 -99 100 -118 -9 -11 -23 -20 -32 -21 -8 -1 -5 -4 8 -7
13 -4 22 -11 20 -17 -2 -5 -6 -9 -10 -8 -5 2 -8 -1 -8 -6 0 -5 5 -11 11 -13 8
-3 6 -10 -5 -21 -19 -19 -14 -22 13 -8 13 7 18 6 18 -4 0 -8 -4 -12 -9 -9 -4
3 -8 0 -8 -6 0 -6 -4 -9 -9 -5 -5 3 -12 1 -15 -4 -4 -5 5 -8 18 -7 17 2 23 -2
21 -13 -1 -9 3 -20 9 -24 6 -5 1 -5 -11 -2 -23 6 -33 -10 -11 -17 9 -3 8 -16
-7 -48 -17 -37 -21 -59 -16 -86 1 -4 8 -1 16 6 16 13 20 3 7 -16 -4 -8 -31 11
-77 52 -467 430 -1050 802 -1660 1061 -1238 524 -2675 596 -3965 197 -1174
-363 -2195 -1082 -2936 -2069 -668 -888 -1065 -1957 -1144 -3075 -21 -307 -10
-769 25 -1070 185 -1558 972 -2951 2214 -3918 1258 -980 2888 -1393 4488
-1137 1093 175 2156 687 2964 1427 67 61 98 84 102 74 6 -15 -1 -26 -15 -26
-5 0 -6 5 -2 12 4 7 3 8 -5 4 -6 -4 -9 -11 -6 -16 3 -5 1 -11 -5 -15 -6 -4 -2
-15 10 -27 11 -12 20 -27 21 -32 0 -6 2 -20 4 -31 l4 -20 -16 20 c-14 18 -15
18 -9 2 3 -10 6 -23 6 -28 0 -5 5 -8 12 -7 6 2 13 -6 15 -17 3 -16 2 -17 -6
-5 -9 13 -11 12 -11 -3 0 -10 -5 -15 -11 -12 -6 4 -9 1 -8 -6 2 -8 -4 -28 -14
-45 -16 -31 -16 -32 4 -27 11 3 16 9 11 12 -6 4 -3 15 8 28 16 20 19 21 30 8
11 -13 10 -14 -3 -10 -22 9 -31 -13 -14 -33 14 -16 13 -17 -10 -19 -14 0 -30
-6 -37 -13 -8 -8 -6 -9 8 -4 15 6 17 4 11 -6 -5 -8 -4 -11 2 -7 6 4 17 -1 24
-10 10 -12 10 -14 2 -9 -9 5 -13 1 -13 -11 -1 -25 -22 -49 -125 -134 -1313
-1093 -3089 -1582 -4790 -1318 -1883 292 -3518 1441 -4429 3114 -635 1164
-869 2494 -675 3820 216 1469 979 2822 2134 3784 995 829 2223 1317 3520 1400
191 12 538 12 720 1z m3680 -1530 c-3 -5 -12 -10 -18 -10 -7 0 -6 4 3 10 19
12 23 12 15 0z m13 -194 c-2 -1 -12 -8 -22 -16 -18 -14 -18 -14 -6 7 8 12 18
19 23 16 4 -3 7 -6 5 -7z m-35 -83 c-4 -11 -8 -13 -11 -5 -2 7 -9 9 -15 5 -7
-4 -6 1 2 10 16 20 33 13 24 -10z m16 -8559 c7 5 9 1 5 -8 -3 -9 -8 -16 -11
-16 -10 0 -32 28 -26 34 4 3 10 1 14 -5 4 -6 12 -9 18 -5z m11 -274 c0 -5 -2
-10 -4 -10 -3 0 -8 5 -11 10 -3 6 -1 10 4 10 6 0 11 -4 11 -10z"/>
<path d="M10896 11504 c-5 -14 -4 -15 9 -4 17 14 19 20 6 20 -5 0 -12 -7 -15
-16z"/>
<path d="M10888 11343 c7 -3 16 -2 19 1 4 3 -2 6 -13 5 -11 0 -14 -3 -6 -6z"/>
<path d="M10887 11324 c-3 -3 -3 -13 0 -22 5 -11 3 -13 -7 -7 -8 5 -11 4 -6
-3 4 -6 13 -9 22 -5 10 4 12 9 4 18 -5 6 -7 15 -3 18 3 4 4 7 1 7 -2 0 -7 -3
-11 -6z"/>
<path d="M10875 11251 c-3 -5 -1 -12 4 -15 5 -3 11 1 15 9 6 16 -9 21 -19 6z"/>
<path d="M10870 2616 c0 -2 11 -6 25 -8 14 -3 25 -1 25 3 0 5 -11 9 -25 9 -14
0 -25 -2 -25 -4z"/>
<path d="M10876 2547 c3 -10 9 -15 12 -12 3 3 0 11 -7 18 -10 9 -11 8 -5 -6z"/>
<path d="M10900 2548 c0 -9 5 -20 10 -23 13 -8 13 5 0 25 -8 13 -10 13 -10 -2z"/>
<path d="M10890 2365 c0 -5 5 -17 10 -25 5 -8 10 -10 10 -5 0 6 -5 17 -10 25
-5 8 -10 11 -10 5z"/>
</g>
</svg>
